Coordinates
version=1
nRows=10
nColumns=40
inDegrees=yes

Units are S.I. units (second, meters, Newtons, ...)
If the header above contains a line with 'inDegrees', this indicates whether rotational values are in degrees (yes) or radians (no).

endheader
time	pelvis_tilt	pelvis_list	pelvis_rotation	pelvis_tx	pelvis_ty	pelvis_tz	hip_flexion_r	hip_adduction_r	hip_rotation_r	knee_angle_r	knee_angle_r_beta	ankle_angle_r	subtalar_angle_r	mtp_angle_r	hip_flexion_l	hip_adduction_l	hip_rotation_l	knee_angle_l	knee_angle_l_beta	ankle_angle_l	subtalar_angle_l	mtp_angle_l	lumbar_extension	lumbar_bending	lumbar_rotation	arm_flex_r	arm_add_r	arm_rot_r	elbow_flex_r	pro_sup_r	wrist_flex_r	wrist_dev_r	arm_flex_l	arm_add_l	arm_rot_l	elbow_flex_l	pro_sup_l	wrist_flex_l	wrist_dev_l
      4.74500000	     -7.05587009	      4.25153409	      2.86540483	     -0.25625630	      1.25027134	     -0.90356016	      3.34497738	     -9.49240466	     -8.97642023	      7.91754469	      0.13818722	    -36.48636729	      0.00000000	      0.00000000	      2.97320808	     -1.64828243	     -5.84718109	      7.14558094	      0.12471391	    -16.97665052	      0.00000000	      0.00000000	      4.00094165	     -4.95596642	     -7.73937524	     -4.98088222	    -35.01837226	     59.20633260	     65.46266222	     87.59426120	      0.00000000	      0.00000000	    -14.94336985	    -39.47531217	     51.50111243	     74.28914295	     87.64892394	      0.00000000	      0.00000000
      4.75000000	     -6.86951675	      4.31419496	      2.76817581	     -0.25590667	      1.25753104	     -0.90314942	      3.12357910	     -9.32501790	     -8.69111696	      8.46410953	      0.14772658	    -36.74600766	      0.00000000	      0.00000000	      2.60968991	     -1.48444575	     -5.33852078	      7.23665325	      0.12630343	    -17.16364375	      0.00000000	      0.00000000	      4.05559875	     -5.09781486	     -7.63636036	     -4.90018607	    -34.92353478	     59.40844262	     65.18194196	     87.58851935	      0.00000000	      0.00000000	    -14.94557921	    -39.54061715	     51.44501587	     74.34866629	     87.65499934	      0.00000000	      0.00000000
      4.75500000	     -6.70270389	      4.38370904	      2.70324407	     -0.25540767	      1.26452717	     -0.90279329	      2.84671292	     -9.17694010	     -8.42788489	      8.81819722	      0.15390658	    -36.82505178	      0.00000000	      0.00000000	      2.08934478	     -1.26350630	     -4.56370710	      6.87948168	      0.12006961	    -17.24573745	      0.00000000	      0.00000000	      4.14430941	     -5.25628108	     -7.59830060	     -4.80672150	    -34.79451473	     59.69525387	     64.85313775	     87.57328945	      0.00000000	      0.00000000	    -15.00799447	    -39.60826866	     51.37047986	     74.49676683	     87.66462998	      0.00000000	      0.00000000
      4.76000000	     -6.62960935	      4.38911369	      2.72460107	     -0.25484495	      1.27126884	     -0.90252666	      2.47957402	     -8.93613637	     -8.05462482	      8.73617171	      0.15247496	    -36.78207341	      0.00000000	      0.00000000	      1.59520561	     -1.13502834	     -3.48291061	      6.22454643	      0.10863883	    -17.70354153	      0.00000000	      0.00000000	      4.32527704	     -5.35969762	     -7.64514166	     -4.72767875	    -34.73246431	     60.00767481	     64.64619356	     87.55132901	      0.00000000	      0.00000000	    -15.20125224	    -39.66380333	     51.18181661	     74.60103477	     87.66779858	      0.00000000	      0.00000000
      4.76500000	     -6.39512463	      4.45648129	      2.62470290	     -0.25403279	      1.27804403	     -0.90221454	      1.86880727	     -8.76937016	     -7.42562954	      8.39329728	      0.14649067	    -36.77820579	      0.00000000	      0.00000000	      0.94768241	     -0.98441216	     -2.86249491	      5.65048076	      0.09861949	    -18.08999089	      0.00000000	      0.00000000	      4.33921831	     -5.49688290	     -7.57480538	     -4.67283161	    -34.72477000	     60.35031163	     64.58744943	     87.54186789	      0.00000000	      0.00000000	    -15.47586491	    -39.67134880	     50.82464358	     74.73235657	     87.67561007	      0.00000000	      0.00000000
      4.77000000	     -6.39488656	      4.46669222	      2.60824600	     -0.25353695	      1.28432129	     -0.90200762	      1.72187327	     -8.63056975	     -7.39229264	      8.41210385	      0.14681891	    -36.76731610	      0.00000000	      0.00000000	      0.84634805	     -0.92833544	     -2.82056463	      5.64635308	      0.09854745	    -18.09207161	      0.00000000	      0.00000000	      4.58945907	     -5.57310241	     -7.54607764	     -4.70880785	    -34.71030729	     60.36405890	     64.58847676	     87.54188615	      0.00000000	      0.00000000	    -15.51991819	    -39.69140682	     50.81865416	     74.73387018	     87.67579693	      0.00000000	      0.00000000
      4.77500000	     -6.07950472	      4.48371973	      2.47921044	     -0.25237005	      1.29081614	     -0.90161319	      0.71566738	     -8.37844698	     -6.02738385	      7.30754360	      0.12754070	    -36.59005530	      0.00000000	      0.00000000	     -0.07135440	     -0.87348638	     -1.99151555	      4.60824138	      0.08042898	    -18.53776284	      0.00000000	      0.00000000	      4.52755161	     -5.65217900	     -7.48813457	     -4.82075348	    -34.68830330	     60.44554507	     64.56688193	     87.51290300	      0.00000000	      0.00000000	    -15.95978663	    -39.72472867	     50.39180192	     74.94075476	     87.67504692	      0.00000000	      0.00000000
      4.78000000	     -5.83267243	      4.52738347	      2.50405055	     -0.25135370	      1.29690375	     -0.90158315	      0.03924157	     -8.27310837	     -5.59865271	      6.76030031	      0.11798950	    -36.38795217	      0.00000000	      0.00000000	     -0.60344581	     -0.82141256	     -1.73618105	      4.25508995	      0.07426533	    -18.56253522	      0.00000000	      0.00000000	      4.51151241	     -5.76605737	     -7.53305570	     -4.94560000	    -34.71070364	     60.41607505	     64.71599286	     87.49004082	      0.00000000	      0.00000000	    -16.22931484	    -39.82763270	     50.12237245	     75.19397278	     87.65609928	      0.00000000	      0.00000000
      4.78500000	     -5.78319564	      4.52576824	      2.42861685	     -0.25024933	      1.30263137	     -0.90159821	     -0.40821896	     -8.16886674	     -5.30462229	      6.15588554	      0.10744047	    -36.19381437	      0.00000000	      0.00000000	     -0.87248954	     -0.80965365	     -1.95932217	      4.01699269	      0.07010975	    -18.64557001	      0.00000000	      0.00000000	      4.77413690	     -5.79143972	     -7.42646794	     -5.15863946	    -34.78292388	     60.36816851	     64.82576151	     87.47901878	      0.00000000	      0.00000000	    -16.44297538	    -39.75098217	     49.91819126	     75.17308284	     87.64381053	      0.00000000	      0.00000000
      4.79000000	     -5.62758875	      4.49441615	      2.41262373	     -0.24937089	      1.30822079	     -0.90156133	     -0.96185889	     -8.03309129	     -5.04046643	      5.53128938	      0.09653921	    -35.96977873	      0.00000000	      0.00000000	     -1.21918785	     -0.87966885	     -2.12323361	      3.81693974	      0.06661817	    -18.68386593	      0.00000000	      0.00000000	      4.84702347	     -5.81948443	     -7.41934578	     -5.33838160	    -34.88632443	     60.18127681	     65.09224528	     87.46454120	      0.00000000	      0.00000000	    -16.73773173	    -39.75441877	     49.66574553	     75.32130091	     87.64070830	      0.00000000	      0.00000000
